<svg width="48" height="10" viewBox="0 0 48 10" fill="none" xmlns="http://www.w3.org/2000/svg">
<path fill-rule="evenodd" clip-rule="evenodd" d="M13.0362 1.4707V3.58539H13.9132V6.63063H13.0362V8.53095L10.9315 6.70637V8.51707H10.6056V6.70637L8.50084 8.53095V6.63063H7.63672V3.58539H8.50083V1.4707L10.6056 3.37938V1.52568H10.9315V3.37938L13.0362 1.4707ZM10.3549 3.58539L8.82677 2.1996V3.58537L10.3549 3.58539ZM10.3505 3.90227H7.96265V6.31375H8.50037V5.55586L10.3505 3.90227ZM8.82677 5.69499V7.82384L10.6056 6.2818V4.10476L8.82677 5.69499ZM10.9315 6.2818L12.7103 7.82384V5.69499L10.9315 4.10476V6.2818ZM13.0362 6.31375H13.5873V3.90227H11.1865L13.0362 5.55586V6.31375ZM11.1822 3.58539L12.7103 2.1996V3.58537L11.1822 3.58539Z" fill="#131313"/>
<path d="M23.8199 3.57379H24.0689V4.07243H23.7466C23.494 4.07243 23.3058 4.13153 23.1812 4.24974C23.0569 4.36796 22.9946 4.56194 22.9946 4.83168V6.46601H22.4858V3.5849H22.9946V4.04466C22.9946 4.07045 23.008 4.08353 23.0343 4.08353C23.0492 4.08353 23.0605 4.07996 23.0683 4.07243C23.0759 4.06489 23.0833 4.05022 23.0909 4.028C23.1889 3.72532 23.4321 3.57379 23.8203 3.57379H23.8199ZM27.1433 4.19143C27.2769 4.42231 27.3441 4.70038 27.3441 5.02526C27.3441 5.35015 27.2772 5.62823 27.1433 5.85911C27.0093 6.08999 26.8361 6.2625 26.6231 6.37715C26.4102 6.4918 26.1812 6.54891 25.9363 6.54891C25.4539 6.54891 25.1147 6.36049 24.9188 5.98364C24.9038 5.9543 24.8848 5.93922 24.8621 5.93922C24.8395 5.93922 24.8281 5.95031 24.8281 5.97255V7.51846H24.3193V3.5849H24.8281V4.07798C24.8281 4.10019 24.8395 4.1113 24.8621 4.1113C24.8848 4.1113 24.9034 4.09662 24.9188 4.06687C25.1147 3.69002 25.4539 3.50159 25.9363 3.50159C26.1812 3.50159 26.4102 3.55872 26.6231 3.67336C26.8361 3.788 27.0093 3.96056 27.1433 4.19143ZM26.8353 5.02526C26.8353 4.6853 26.7422 4.42032 26.5556 4.23031C26.369 4.0403 26.1233 3.94509 25.8177 3.94509C25.5121 3.94509 25.2664 4.0403 25.0798 4.23031C24.8933 4.42072 24.8249 4.6857 24.8249 5.02526C24.8249 5.36483 24.8933 5.63021 25.0798 5.82019C25.2664 6.01064 25.5125 6.10545 25.8177 6.10545C26.123 6.10545 26.369 6.01026 26.5556 5.82019C26.7422 5.63021 26.8353 5.36483 26.8353 5.02526ZM18.7366 4.1958C18.8702 4.42667 18.9374 4.70475 18.9374 5.02963C18.9374 5.35451 18.8706 5.6326 18.7366 5.86348C18.6026 6.0943 18.4294 6.26688 18.2166 6.38153C18.0036 6.49618 17.7745 6.55328 17.5296 6.55328C17.0472 6.55328 16.708 6.36486 16.5121 5.98802C16.4971 5.95867 16.4781 5.94359 16.4555 5.94359C16.4328 5.94359 16.4214 5.95468 16.4214 5.97693V7.52277H15.9131V3.58926H16.4218V4.08235C16.4218 4.10456 16.4332 4.11567 16.4559 4.11567C16.4785 4.11567 16.4971 4.10099 16.5126 4.07124C16.7084 3.69439 17.0476 3.50596 17.53 3.50596C17.7749 3.50596 18.0041 3.56308 18.217 3.67773C18.4298 3.79237 18.6026 3.96492 18.7366 4.1958ZM18.4286 5.02963C18.4286 4.68967 18.3356 4.42468 18.1489 4.23468C17.9623 4.04466 17.7167 3.94945 17.411 3.94945C17.1055 3.94945 16.8598 4.04466 16.6732 4.23468C16.4866 4.42508 16.4182 4.69006 16.4182 5.02963C16.4182 5.36918 16.4866 5.63457 16.6732 5.82457C16.8598 6.01502 17.1055 6.10983 17.411 6.10983C17.7167 6.10983 17.9623 6.01457 18.1489 5.82457C18.3356 5.63457 18.4286 5.36918 18.4286 5.02963ZM21.5492 5.55127H22.0863C22.0147 5.82102 21.8686 6.05469 21.6484 6.25224C21.4278 6.44979 21.1121 6.54853 20.7013 6.54853C20.392 6.54853 20.1201 6.48667 19.8845 6.36289C19.6489 6.23912 19.4672 6.06299 19.3389 5.83369C19.2106 5.60482 19.1466 5.33508 19.1466 5.02487C19.1466 4.71467 19.2089 4.44491 19.3333 4.21602C19.4575 3.98714 19.632 3.81062 19.8562 3.68685C20.0804 3.56308 20.3431 3.50119 20.6447 3.50119C20.9461 3.50119 21.1959 3.56229 21.4051 3.68407C21.6144 3.80585 21.7707 3.9677 21.8743 4.16883C21.9778 4.37034 22.0296 4.5909 22.0296 4.83089V5.16332H19.6838C19.7024 5.45131 19.8015 5.68057 19.9804 5.85036C20.1593 6.02015 20.3997 6.10545 20.7013 6.10545C20.9461 6.10545 21.134 6.05665 21.2639 5.95867C21.3939 5.86069 21.4889 5.725 21.5492 5.55127ZM19.6894 4.74798H21.4647C21.4647 4.49688 21.3986 4.30013 21.2667 4.15772C21.1348 4.01571 20.9276 3.9443 20.645 3.9443C20.3812 3.9443 20.1654 4.01372 19.9979 4.15216C19.8303 4.29061 19.7275 4.48934 19.6898 4.74759L19.6894 4.74798ZM27.7468 6.46563H28.2556V2.47656H27.7468V6.46601V6.46563ZM34.806 3.27033H35.4002V2.64674H34.806V3.27033ZM36.9022 6.03644C36.8099 6.04556 36.7541 6.05032 36.7354 6.05032C36.7091 6.05032 36.6881 6.04277 36.6731 6.02807C36.6582 6.01343 36.6504 5.99315 36.6504 5.96698C36.6504 5.94872 36.6553 5.89403 36.6646 5.80359C36.6739 5.71308 36.6788 5.57348 36.6788 5.38545V4.00697H37.4045L37.2617 3.5849H36.6792V2.80898H36.1704V3.5845H35.6171V4.00658H36.1704V5.5235C36.1704 5.84123 36.2498 6.0777 36.408 6.23278C36.5663 6.38787 36.8075 6.46563 37.1317 6.46563H37.5275V6.02256H37.3296C37.1374 6.02256 36.9949 6.02731 36.9026 6.03644H36.9022ZM39.8791 3.5845L39.0369 6.0019C39.0255 6.03168 39.0078 6.07053 38.9499 6.07053C38.8919 6.07053 38.8742 6.03168 38.8628 6.0019L38.0205 3.5845H37.5016L38.4771 6.46563H38.822C38.8446 6.46563 38.8616 6.46759 38.873 6.47121C38.8843 6.47476 38.8935 6.48388 38.9013 6.49897C38.9162 6.52115 38.9142 6.55449 38.8956 6.59853L38.7374 7.01942C38.7147 7.07494 38.6714 7.1027 38.6074 7.1027C38.5848 7.1027 38.5322 7.09795 38.4492 7.08882C38.3662 7.0797 38.2589 7.07494 38.1269 7.07494H37.7142V7.51802H38.2569C38.5734 7.51802 38.7641 7.46528 38.928 7.36014C39.0919 7.25506 39.219 7.06936 39.3096 6.80318L40.3632 3.69478V3.58411H39.8791V3.5845ZM33.1441 4.65951L32.3472 3.5845H31.7874V3.69518L32.7426 4.94196L31.5781 6.35497V6.46563H32.1493L33.0765 5.3077L33.9415 6.46563H34.4899V6.35497L33.478 5.02526L34.575 3.70113V3.5849H34.0038L33.1445 4.65992L33.1441 4.65951ZM34.8603 6.46563H35.369V3.5849H34.8603V6.46601V6.46563ZM31.6012 5.55127C31.5295 5.82102 31.3835 6.05469 31.1633 6.25224C30.9427 6.44979 30.6269 6.54853 30.2162 6.54853C29.9069 6.54853 29.635 6.48667 29.3994 6.36289C29.1638 6.23912 28.9821 6.06299 28.8538 5.83369C28.7255 5.60482 28.6615 5.33508 28.6615 5.02487C28.6615 4.71467 28.7238 4.44491 28.8482 4.21602C28.9724 3.98714 29.1468 3.81062 29.371 3.68685C29.5953 3.56308 29.858 3.50119 30.1595 3.50119C30.461 3.50119 30.7107 3.56229 30.92 3.68407C31.1292 3.80585 31.2855 3.9677 31.3891 4.16883C31.4927 4.37034 31.5445 4.5909 31.5445 4.83089V5.16332H29.1986C29.2173 5.45131 29.3164 5.68057 29.4953 5.85036C29.6742 6.02015 29.9146 6.10545 30.2162 6.10545C30.461 6.10545 30.6488 6.05665 30.7788 5.95867C30.9086 5.86069 31.0038 5.725 31.0641 5.55127H31.6012ZM29.2043 4.74798H30.9796C30.9796 4.49688 30.9135 4.30013 30.7816 4.15772C30.6496 4.01571 30.4424 3.9443 30.1599 3.9443C29.8961 3.9443 29.6803 4.01372 29.5127 4.15216C29.3451 4.29061 29.2423 4.48934 29.2047 4.74759L29.2043 4.74798Z" fill="#131313"/>
</svg>
