<svg width="48" height="10" viewBox="0 0 48 10" fill="none" xmlns="http://www.w3.org/2000/svg">
<path d="M20.6572 2.32227V6.50411H21.2105V4.50737H22.5409V3.98831H21.2105V2.84552H22.9392V2.32227H20.6572ZM23.9403 3.17203C24.1405 3.17203 24.3019 3.01505 24.3019 2.8204C24.3019 2.62575 24.1383 2.48971 23.9403 2.48971C23.7422 2.48971 23.5786 2.64668 23.5786 2.84133C23.5786 2.93552 23.6173 3.02343 23.6862 3.0925C23.7551 3.16156 23.8455 3.19715 23.9446 3.19715L23.9403 3.17203ZM23.6604 3.69947V6.50411H24.1921V3.69947H23.6432H23.6604ZM26.2696 3.61575C25.5334 3.61575 25.021 4.24365 25.021 4.93853C25.021 5.63341 25.5377 6.25713 26.2696 6.25713C26.4219 6.25972 26.5731 6.23148 26.7136 6.17418C26.854 6.11689 26.9807 6.03181 27.0855 5.92434V6.2969C27.084 6.52074 26.9947 6.73558 26.8358 6.8976C26.7555 6.9772 26.6597 7.04043 26.554 7.08356C26.4483 7.12669 26.3348 7.14885 26.2201 7.14876C26.044 7.14335 25.8734 7.08806 25.7293 6.98969L25.4494 7.45643C25.6643 7.59081 25.9125 7.66636 26.1679 7.67511C26.4233 7.68386 26.6764 7.62549 26.9005 7.50615C27.1246 7.38681 27.3115 7.21092 27.4414 6.997C27.5713 6.78308 27.6395 6.53905 27.6388 6.29062V3.69528H27.0855V3.94644C26.9807 3.83898 26.854 3.7539 26.7136 3.6966C26.5731 3.63931 26.4219 3.61316 26.2696 3.61575ZM25.5764 4.93853C25.5638 4.80246 25.5906 4.66567 25.6537 4.54362C25.7169 4.42156 25.8139 4.31911 25.9338 4.24784C26.1792 4.10133 26.487 4.10133 26.7303 4.24784C26.9736 4.39435 27.1114 4.66226 27.0877 4.93853C27.1003 5.07461 27.0735 5.2114 27.0104 5.33345C26.9472 5.4555 26.8502 5.55795 26.7303 5.62923C26.4849 5.77574 26.177 5.77574 25.9338 5.62923C25.6905 5.48272 25.5527 5.21481 25.5764 4.93853Z" fill="#131313"/>
<path d="M29.6344 4.16192C29.4753 4.16248 29.3228 4.22418 29.2103 4.33357C29.0978 4.44296 29.0343 4.59117 29.0337 4.74588V6.52075H28.4805V3.71611H29.0337V3.95262C29.2017 3.73495 29.4686 3.60937 29.7485 3.61356C30.1015 3.60518 30.4309 3.78937 30.6053 4.08867C30.8206 3.79565 31.1306 3.61774 31.4664 3.61356C32.0972 3.61356 32.489 4.10751 32.4912 4.71867V6.50401H31.9379V4.72495C31.9541 4.61412 31.9373 4.50111 31.8896 4.39926C31.8418 4.29741 31.765 4.21099 31.6683 4.15023C31.5716 4.08946 31.4591 4.05689 31.3439 4.05637C31.2288 4.05585 31.1159 4.08739 31.0186 4.14727C30.9219 4.20859 30.8453 4.29563 30.798 4.39803C30.7507 4.50044 30.7346 4.61391 30.7517 4.72495V6.49982H30.2199V4.72704C30.2194 4.57234 30.1559 4.42413 30.0434 4.31473C29.9309 4.20534 29.7784 4.14364 29.6193 4.14309L29.6344 4.16192ZM35.447 4.01541C35.321 3.88766 35.1696 3.78629 35.0019 3.71754C34.8342 3.64879 34.6538 3.61412 34.4718 3.61565C33.6472 3.61565 33.0724 4.29378 33.0724 5.08076C33.0724 5.86773 33.6537 6.54587 34.4718 6.54587C34.6538 6.5474 34.8342 6.51272 35.0019 6.44398C35.1696 6.37523 35.321 6.27386 35.447 6.1461V6.46424H36.0003V3.6596H35.447V4.01541ZM33.6171 5.10378C33.5891 4.7689 33.757 4.44658 34.052 4.27076C34.3469 4.09495 34.6978 4.09495 35.0121 4.27076C35.1561 4.35763 35.2727 4.48124 35.3494 4.62812C35.4261 4.77501 35.4598 4.93954 35.447 5.10378C35.475 5.43866 35.307 5.76099 35.0121 5.9368C34.7172 6.11261 34.3663 6.11261 34.052 5.9368C33.908 5.84994 33.7913 5.72633 33.7146 5.57944C33.638 5.43256 33.6042 5.26803 33.6171 5.10378Z" fill="#131313"/>
<g clip-path="url(#clip0_1703_760)">
<path fill-rule="evenodd" clip-rule="evenodd" d="M13.041 2.59697C13.041 1.77648 13.7252 1.11133 14.5691 1.11133H17.4323C18.2762 1.11137 18.9603 1.7765 18.9603 2.59697C18.9603 3.07299 18.73 3.49671 18.3718 3.7686C18.7315 4.06433 18.9598 4.50625 18.9598 5.00002C18.9598 5.89039 18.2174 6.61216 17.3016 6.61216C16.9508 6.61216 16.6254 6.50623 16.3574 6.32547V7.27752C16.3574 8.16791 15.615 8.88968 14.6992 8.88968H14.5691C13.7252 8.88968 13.041 8.22452 13.041 7.40402C13.041 6.92791 13.2714 6.50411 13.6296 6.23222C13.2696 5.9365 13.041 5.49432 13.041 5.00023C13.041 4.50629 13.2695 4.06424 13.6293 3.76852C13.2712 3.49662 13.041 3.07293 13.041 2.59697ZM14.5692 3.39298C14.5692 3.39297 14.5692 3.39298 14.5692 3.39298L14.5691 3.38818C14.1197 3.38818 13.7553 3.03394 13.7553 2.59697C13.7553 2.16 14.1197 1.80577 14.5691 1.80577H15.644V3.38809H14.6992C14.6932 3.38809 14.6872 3.38812 14.6812 3.38818H14.5691L14.5692 3.39298ZM17.2775 4.08262C16.7673 4.09505 16.3577 4.50103 16.3577 5.00002C16.3577 5.50686 16.7803 5.91772 17.3016 5.91772C17.8229 5.91772 18.2455 5.50686 18.2455 5.00002C18.2455 4.50103 17.8359 4.09505 17.3257 4.08262H17.2775ZM14.5691 6.61281C14.1197 6.61281 13.7553 6.96702 13.7553 7.40402C13.7553 7.84096 14.1197 8.19524 14.5691 8.19524H14.6992C15.2205 8.19524 15.6431 7.78435 15.6431 7.27752V6.61281H14.5691Z" fill="#131313"/>
</g>
<defs>
<clipPath id="clip0_1703_760">
<rect width="7.99997" height="7.77774" fill="white" transform="translate(12 1.11133)"/>
</clipPath>
</defs>
</svg>
