<svg width="48" height="10" viewBox="0 0 48 10" fill="none" xmlns="http://www.w3.org/2000/svg">
<path d="M15.0432 3.15686L12.1609 1.53897C12.0683 1.48701 11.9541 1.48701 11.8616 1.53897L8.97936 3.15686C8.90155 3.20053 8.85352 3.28131 8.85352 3.3688V6.63127C8.85352 6.71862 8.90155 6.79953 8.97936 6.84321L11.8617 8.46109C11.9543 8.51306 12.0685 8.51306 12.161 8.46109L15.0434 6.84321C15.1212 6.79953 15.1692 6.71875 15.1692 6.63127V3.3688C15.1692 3.28144 15.1211 3.20053 15.0432 3.15686ZM14.8622 3.49956L12.0797 8.18509C12.0609 8.21666 12.0112 8.20377 12.0112 8.16719V5.09916C12.0112 5.03785 11.9775 4.98115 11.9229 4.95037L9.19005 3.41642C9.15757 3.39813 9.17083 3.34985 9.20845 3.34985H14.7734C14.8525 3.34985 14.9017 3.433 14.8622 3.49956Z" fill="#131313"/>
<path d="M18.6276 3.31836H19.8541V3.97522H18.6692C18.0299 3.97522 17.531 4.33398 17.531 5.09188C17.531 5.84977 18.0299 6.20853 18.6692 6.20853H19.8541V6.86539H18.5756C17.505 6.86539 16.7463 6.25405 16.7463 5.09201C16.7463 3.92997 17.557 3.31836 18.6276 3.31836Z" fill="#131313"/>
<path d="M20.4799 3.31836H21.2386V5.48589C21.2386 6.02645 21.4933 6.27917 22.091 6.27917C22.6887 6.27917 22.9433 6.02658 22.9433 5.48589V3.31836H23.702V5.63744C23.702 6.4256 23.1876 6.92591 22.091 6.92591C20.9944 6.92591 20.4799 6.4206 20.4799 5.63244V3.31836Z" fill="#131313"/>
<path d="M27.6647 4.32372C27.6647 4.71786 27.4308 5.02097 27.1189 5.15239V5.16252C27.4464 5.20804 27.6127 5.43537 27.6179 5.74361L27.6334 6.86526H26.8747L26.8591 5.8649C26.854 5.64257 26.7188 5.50615 26.4486 5.50615H25.1857V6.86526H24.427V3.31836H26.5214C27.2074 3.31836 27.6647 3.65672 27.6647 4.32372ZM26.9007 4.42488C26.9007 4.12178 26.7344 3.95496 26.4226 3.95496H25.1857V4.89467H26.4329C26.7187 4.89467 26.9007 4.72812 26.9007 4.42488Z" fill="#131313"/>
<path d="M30.5357 5.82951C30.5357 5.57692 30.3694 5.47076 30.12 5.45063L29.2781 5.37485C28.5505 5.30921 28.1711 5.03123 28.1711 4.35924C28.1711 3.68724 28.6389 3.31836 29.3092 3.31836H31.1697V3.95496H29.3612C29.1014 3.95496 28.9351 4.08639 28.9351 4.33898C28.9351 4.59156 29.1065 4.71286 29.3665 4.73312L30.224 4.8039C30.8736 4.85941 31.2997 5.14752 31.2997 5.82451C31.2997 6.5015 30.8476 6.86539 30.2084 6.86539H28.2647V6.22879H30.1356C30.3798 6.22879 30.5357 6.06697 30.5357 5.82951Z" fill="#131313"/>
<path d="M33.5183 3.25586C34.6616 3.25586 35.384 3.96824 35.384 5.08489C35.384 6.20154 34.6304 6.92405 33.4872 6.92405C32.3439 6.92405 31.6214 6.20154 31.6214 5.08489C31.6214 3.96824 32.375 3.25586 33.5183 3.25586ZM34.5992 5.08989C34.5992 4.34212 34.1522 3.90259 33.5026 3.90259C32.8529 3.90259 32.406 4.34212 32.406 5.08989C32.406 5.83766 32.8529 6.27719 33.5026 6.27719C34.1522 6.27719 34.5992 5.83766 34.5992 5.08989Z" fill="#131313"/>
<path d="M39.1462 4.32372C39.1462 4.71786 38.9124 5.02097 38.6004 5.15239V5.16252C38.9279 5.20804 39.0942 5.43537 39.0994 5.74361L39.1149 6.86526H38.3562L38.3406 5.8649C38.3355 5.64257 38.2003 5.50615 37.9301 5.50615H36.6672V6.86526H35.9085V3.31836H38.0029C38.6889 3.31836 39.1462 3.65672 39.1462 4.32372ZM38.3822 4.42488C38.3822 4.12178 38.2159 3.95496 37.9041 3.95496H36.6672V4.89467H37.9144C38.2002 4.89467 38.3822 4.72812 38.3822 4.42488Z" fill="#131313"/>
</svg>
