<svg width="48" height="10" viewBox="0 0 48 10" fill="none" xmlns="http://www.w3.org/2000/svg">
<path d="M19.3701 7.09783V2.19336H21.0867C22.0886 2.19336 22.7472 2.7889 22.7472 3.69273C22.7472 4.59655 22.0886 5.19209 21.0867 5.19209H20.1688V7.09783H19.3701ZM20.1688 4.46344H21.0867C21.6192 4.46344 21.9345 4.16917 21.9345 3.69273C21.9345 3.2163 21.6192 2.92904 21.0867 2.92904H20.1688V4.46344ZM22.7116 5.38125C22.7116 6.43921 23.3772 7.17489 24.3301 7.17489C24.8276 7.17489 25.262 6.94368 25.4721 6.57935V7.09781H26.2359V3.65767H25.4721V4.14112C25.283 3.81182 24.8276 3.58059 24.3301 3.58059C23.3772 3.58059 22.7116 4.31627 22.7116 5.38125ZM24.4842 6.48125C23.8957 6.48125 23.4753 6.02585 23.4753 5.38125C23.4753 4.73666 23.8957 4.27423 24.4842 4.27423C25.0798 4.27423 25.5002 4.72966 25.5002 5.38125C25.5002 6.02585 25.0798 6.48125 24.4842 6.48125ZM26.8605 8.4991V3.65767H27.6172V4.18314C27.8204 3.81883 28.2618 3.58059 28.7663 3.58059C29.7191 3.58059 30.3847 4.31627 30.3847 5.37425C30.3847 6.43921 29.7191 7.17489 28.7663 7.17489C28.2688 7.17489 27.8134 6.94368 27.6172 6.60737V8.4991H26.8605ZM27.5962 5.37425C27.5962 6.02585 28.0096 6.48125 28.6051 6.48125C29.2007 6.48125 29.614 6.01884 29.614 5.37425C29.614 4.72966 29.2007 4.27423 28.6051 4.27423C28.0166 4.27423 27.5962 4.72966 27.5962 5.37425ZM30.6803 5.38125C30.6803 6.41819 31.409 7.17489 32.4389 7.17489C33.186 7.17489 33.8357 6.73651 34.0343 6.08167H33.2527C33.0797 6.34849 32.781 6.50928 32.4389 6.50928C31.8994 6.50928 31.5141 6.15195 31.444 5.58443H34.0224C34.0364 5.52137 34.0434 5.43731 34.0434 5.31819C34.0434 4.2462 33.4198 3.58059 32.4249 3.58059C31.416 3.58059 30.6803 4.33029 30.6803 5.38125ZM33.3007 5.02393H31.4721C31.5911 4.54748 31.9485 4.2392 32.4249 4.2392C32.9224 4.2392 33.2377 4.53346 33.3007 5.02393ZM34.5722 3.65767V7.09781H35.329V5.33921C35.329 4.68061 35.6513 4.32328 36.2677 4.32328C36.4639 4.32328 36.646 4.35831 36.7862 4.39335V3.65767C36.66 3.60862 36.4919 3.58059 36.3167 3.58059C35.8685 3.58059 35.5182 3.81182 35.329 4.2392V3.65767H34.5722Z" fill="#131313"/>
<path d="M14.9343 1.5H12.1337V2.43353H14.9343V5.23408H12.1337V2.43353H11.2002V5.23408V7.56788H12.1337H14.9343V5.23408H17.2681V2.43353V1.5H14.9343Z" fill="#131313"/>
</svg>
