<svg width="48" height="10" viewBox="0 0 48 10" fill="none" xmlns="http://www.w3.org/2000/svg">
<path d="M18.6616 6.19052C18.4386 6.99321 17.7697 7.52833 16.8109 7.52833C15.5846 7.52833 14.7373 6.65876 14.7373 5.34324C14.7373 3.96083 15.7407 2.95747 17.19 2.95747C17.7474 2.95747 18.1487 3.09125 18.3717 3.18044L18.5055 4.45136H18.4163C17.9035 3.64867 17.4575 3.13584 17.0785 3.13584C16.5657 3.13584 16.1643 3.76016 16.1643 4.76352C16.1643 6.03444 16.8332 6.52497 17.5913 6.52497C18.0149 6.52497 18.394 6.3689 18.617 6.16822H18.6616V6.19052ZM22.1622 5.25405C22.1622 4.00542 21.9169 3.11355 21.2703 3.11355C20.6237 3.11355 20.3784 3.98313 20.3784 5.23175C20.3784 6.48038 20.646 7.32766 21.2703 7.32766C21.8946 7.32766 22.1622 6.48038 22.1622 5.23175M18.9068 5.23175C18.9068 4.00542 19.9771 2.95747 21.2703 2.95747C22.5635 2.95747 23.6338 4.02772 23.6338 5.25405C23.6338 6.48038 22.5635 7.50604 21.2703 7.50604C19.9771 7.50604 18.9068 6.48038 18.9068 5.25405M25.9081 7.39455H24.0574V7.34996C24.1912 6.90402 24.2804 6.56957 24.2804 5.81147V4.83041C24.2804 4.1615 24.1466 3.80475 23.8344 3.4257L25.6405 2.89058V3.78245H25.6851C25.9081 3.4257 26.3763 2.93517 27.1567 2.93517C27.9371 2.93517 28.4945 3.4257 28.4945 4.1615V5.81147C28.4945 6.54727 28.5391 6.92632 28.6952 7.34996H26.8445C27.0006 6.90402 27.0675 6.52497 27.0675 5.83377V4.25069C27.0675 3.87164 26.8891 3.58178 26.4655 3.58178C26.131 3.58178 25.8635 3.80475 25.6851 4.02772V5.81147C25.6851 6.54727 25.752 6.92632 25.9081 7.34996V7.39455ZM29.4087 6.302V3.29192H28.9181V3.22503L30.7019 2.08789H30.8134V3.11355H33.9795V3.29192H30.8134V6.25741C30.8134 6.79254 31.1032 6.94861 31.4377 6.94861C31.7498 6.94861 31.9505 6.81483 31.9505 6.81483H31.9728C31.7721 7.17158 31.3039 7.50604 30.6127 7.50604C29.8992 7.50604 29.4087 7.17158 29.4087 6.302Z" fill="#131313"/>
<path d="M32.397 7.39813V7.35353C32.5308 6.90759 32.6199 6.57314 32.6199 5.81504V4.83398C32.6199 4.16507 32.6422 3.62995 32.3301 3.2732V3.2509L33.98 3.11712V3.9867C34.3591 3.60765 34.7827 2.91645 35.5408 2.96104L35.3848 4.45493H35.3402C35.1139 4.1676 34.7873 3.97644 34.426 3.91981C34.2922 3.91981 34.1361 4.03129 34.0246 4.18737V5.83734C34.0246 6.57314 34.0915 6.95219 34.2476 7.37583H32.397V7.39813ZM37.8597 6.68462V5.16843C37.2354 5.34681 36.9009 5.77045 36.9009 6.19409C36.9009 6.52855 37.1016 6.75151 37.4807 6.75151C37.6367 6.75151 37.7482 6.72922 37.8597 6.66233M37.882 6.8407C37.6367 7.19745 37.2131 7.50961 36.6557 7.50961C36.1206 7.50961 35.6523 7.13056 35.6523 6.48395C35.6523 5.52519 36.8563 5.19073 37.8597 4.99006V4.54412C37.8597 4.009 37.6367 3.76373 37.0124 3.76373C36.678 3.76373 36.2543 3.83062 35.8753 3.9867L35.8307 3.94211C36.2766 3.42928 36.9455 2.96104 37.9043 2.96104C38.8408 2.96104 39.2644 3.42928 39.2644 4.12048V6.37247C39.2644 6.59544 39.3759 6.77381 39.6435 6.77381C39.7549 6.77381 39.8664 6.75151 39.9779 6.66233L40.0002 6.70692C39.8664 6.99678 39.5543 7.50961 38.8185 7.50961C38.2834 7.50961 37.9712 7.21975 37.882 6.8407Z" fill="#131313"/>
<path d="M30.5232 3.27092H33.9793V3.04795H30.5232V3.27092ZM10.2999 4.8986H13.0871C13.1316 4.8986 13.1539 4.8986 13.1539 4.854V4.76482C13.1539 4.74252 13.1539 4.72022 13.1094 4.72022C11.7938 4.36347 10.7682 3.36011 10.4337 2.04459L10.3445 2H10.2776C10.2553 2 10.2331 2.0223 10.2331 2.06689V4.854C10.2331 4.8763 10.2331 4.8986 10.2776 4.8986H10.2999ZM10.2999 8.15395H10.3891L10.4337 8.10935C10.7905 6.79383 11.7938 5.76818 13.1094 5.43372L13.1539 5.36683V5.29994C13.1539 5.27764 13.1316 5.23305 13.0871 5.23305H10.2999L10.2553 5.29994V8.08705C10.2553 8.13165 10.2553 8.15395 10.2999 8.15395ZM9.78711 8.15395H9.854C9.8763 8.15395 9.8986 8.13165 9.8986 8.08705V5.29994C9.8986 5.27764 9.8986 5.23305 9.854 5.23305H7.06689C7.0223 5.23305 7 5.27764 7 5.29994V5.38913C7 5.41143 7 5.43372 7.04459 5.43372C8.36011 5.76818 9.38577 6.79383 9.72022 8.10935L9.78711 8.15395ZM7.06689 4.8986H9.854C9.8763 4.8986 9.8986 4.8986 9.8986 4.854V2.06689C9.8986 2.0223 9.8986 2 9.854 2H9.76482C9.74252 2 9.72022 2 9.72022 2.04459C9.36347 3.33781 8.33781 4.38577 7.04459 4.72022L7 4.78711V4.854C7 4.8763 7.0223 4.8986 7.06689 4.8986Z" fill="#131313"/>
</svg>
