<svg width="48" height="10" viewBox="0 0 48 10" fill="none" xmlns="http://www.w3.org/2000/svg">
<g clip-path="url(#clip0_1702_649)">
<mask id="mask0_1702_649" style="mask-type:luminance" maskUnits="userSpaceOnUse" x="6" y="1" width="35" height="8">
<path d="M40.9167 1.5H6.5V8.5H40.9167V1.5Z" fill="white"/>
</mask>
<g mask="url(#mask0_1702_649)">
<path d="M17.6255 2.93359H18.7576L19.3871 5.70477H19.3995L20.011 2.93359H21.1418L21.42 7.15646H20.6335L20.4641 3.93766H20.4517L19.6832 7.15646H19.0606L18.2866 3.93766H18.2742L18.1048 7.15646H17.3486L17.6269 2.93359H17.6255Z" fill="#131313"/>
<path d="M21.8825 6.89628C21.6952 6.70483 21.6016 6.45003 21.6016 6.13048C21.6016 5.91698 21.6456 5.72967 21.731 5.57127C21.8178 5.41152 21.9363 5.28894 22.0877 5.20217C22.2393 5.1154 22.4114 5.0727 22.6056 5.0727C22.7227 5.0727 22.8329 5.08923 22.9348 5.12091C23.0381 5.15395 23.129 5.1994 23.2103 5.26H23.2227V5.11402C23.2227 4.9322 23.1703 4.79173 23.0656 4.69394C22.961 4.59477 22.8095 4.54519 22.6125 4.54519C22.4872 4.54519 22.366 4.5631 22.2461 4.59888C22.1277 4.6347 22.0148 4.68428 21.9101 4.74489V4.02456C22.0354 3.97222 22.1635 3.93365 22.2944 3.90886C22.4252 3.88545 22.5574 3.87305 22.691 3.87305C23.0987 3.87305 23.4155 3.98048 23.6441 4.19672C23.8714 4.41296 23.9857 4.71459 23.9857 5.10163V7.15245H23.2833V6.95275H23.2709C23.1896 7.02572 23.0918 7.08222 22.9775 7.12215C22.8632 7.16208 22.7378 7.18276 22.6056 7.18276C22.3109 7.18276 22.0699 7.0877 21.8825 6.89488V6.89628ZM23.0477 6.52715C23.1125 6.48859 23.1621 6.4335 23.1993 6.36049C23.2364 6.28749 23.2544 6.20486 23.2544 6.11257C23.2544 5.97071 23.2144 5.85777 23.1359 5.771C23.0574 5.68423 22.9555 5.64153 22.8301 5.64153C22.7461 5.64153 22.6704 5.66218 22.6029 5.70214C22.5368 5.74207 22.4844 5.79717 22.4459 5.8688C22.4073 5.93903 22.388 6.02029 22.388 6.11395C22.388 6.25167 22.4293 6.36463 22.512 6.45277C22.5946 6.54229 22.7007 6.58639 22.8301 6.58639C22.9114 6.58639 22.983 6.56708 23.0477 6.52852V6.52715Z" fill="#131313"/>
<path d="M24.6685 7.82094V7.02209C24.8214 7.1116 24.9853 7.18184 25.1589 7.23419C25.3324 7.28652 25.5101 7.31268 25.6919 7.31268C25.9536 7.31268 26.1588 7.25898 26.3062 7.14879C26.4535 7.03997 26.5265 6.88022 26.5265 6.67087V6.58684H26.5142C26.3971 6.6874 26.2676 6.76178 26.1271 6.80722C25.9866 6.85266 25.8351 6.87745 25.674 6.87745C25.3999 6.87745 25.1561 6.81684 24.9454 6.69566C24.7333 6.57444 24.568 6.40227 24.4495 6.17777C24.3311 5.95328 24.2705 5.69434 24.2705 5.40098C24.2705 5.10759 24.3311 4.83351 24.4523 4.60487C24.5735 4.37762 24.7415 4.20132 24.9578 4.07599C25.174 3.95065 25.4233 3.88867 25.7057 3.88867C25.8792 3.88867 26.039 3.91346 26.1863 3.96442C26.3337 4.01401 26.4632 4.08976 26.5761 4.19168H26.5885V3.91346H27.2909V6.60063C27.2909 6.92292 27.2221 7.18872 27.0857 7.39945C26.948 7.60881 26.7607 7.76307 26.5224 7.85949C26.2841 7.95589 26.0101 8.00547 25.7001 8.00547C25.3448 8.00547 25.0019 7.94489 24.6713 7.82368L24.6685 7.82094ZM26.2056 6.12131C26.3186 6.05659 26.4053 5.96567 26.4659 5.84586C26.5266 5.72738 26.5569 5.58414 26.5569 5.41889C26.5569 5.2536 26.5266 5.11587 26.4659 4.99466C26.4053 4.87347 26.3186 4.77979 26.2056 4.71369C26.0927 4.64757 25.9591 4.61316 25.8062 4.61316C25.6533 4.61316 25.5197 4.64757 25.4068 4.71644C25.2938 4.7853 25.2098 4.88035 25.152 5.00154C25.0955 5.12276 25.068 5.25911 25.068 5.41337C25.068 5.56764 25.0969 5.70399 25.1561 5.82795C25.214 5.95051 25.2994 6.04693 25.4096 6.11579C25.5211 6.18466 25.6547 6.2191 25.8117 6.2191C25.9605 6.2191 26.0927 6.18743 26.2056 6.12268V6.12131Z" fill="#131313"/>
<path d="M27.7398 3.52122C27.6531 3.44271 27.6104 3.33804 27.6104 3.20994C27.6104 3.08185 27.6517 2.97856 27.7343 2.90143C27.817 2.8243 27.9271 2.78711 28.0635 2.78711C28.1998 2.78711 28.31 2.8243 28.3927 2.89867C28.4753 2.97305 28.5166 3.07772 28.5166 3.20994C28.5166 3.34217 28.4739 3.44822 28.3899 3.52397C28.3059 3.59973 28.1957 3.63829 28.0635 3.63829C27.9313 3.63829 27.8266 3.59835 27.7398 3.51984V3.52122ZM27.682 3.911H28.445V7.1546H27.682V3.911Z" fill="#131313"/>
<path d="M29.5115 6.98811C29.2677 6.84899 29.0777 6.6548 28.9427 6.40411C28.8077 6.15482 28.7402 5.86558 28.7402 5.53914C28.7402 5.21274 28.8077 4.92349 28.9427 4.6742C29.0777 4.42492 29.2677 4.22933 29.5115 4.09021C29.7553 3.95111 30.0349 3.88086 30.349 3.88086C30.55 3.88086 30.736 3.90979 30.9054 3.96626V4.74721C30.736 4.66181 30.5638 4.62048 30.3917 4.62048C30.2195 4.62048 30.0735 4.65904 29.944 4.73481C29.8146 4.81056 29.7154 4.91935 29.6451 5.05848C29.5749 5.19757 29.5391 5.35872 29.5391 5.53914C29.5391 5.7196 29.5749 5.88074 29.6451 6.01984C29.7154 6.15896 29.8159 6.26638 29.944 6.3435C30.0735 6.42065 30.2222 6.4592 30.3917 6.4592C30.5611 6.4592 30.736 6.4165 30.9054 6.3325V7.11344C30.736 7.16991 30.55 7.19884 30.349 7.19884C30.0349 7.19884 29.7553 7.12995 29.5115 6.99085V6.98811Z" fill="#131313"/>
<path d="M31.4145 2.93106H32.4185C32.6967 2.93106 32.9364 2.98478 33.1389 3.09084C33.34 3.19827 33.4942 3.35253 33.6017 3.55637C33.7091 3.76021 33.7614 4.00538 33.7614 4.29186C33.7614 4.57833 33.7077 4.82625 33.6017 5.03561C33.4942 5.24497 33.34 5.40611 33.1389 5.5163C32.9364 5.62787 32.6967 5.68296 32.4185 5.68296H32.0673V4.99979H32.3579C32.4957 4.99979 32.61 4.97363 32.7023 4.9213C32.7945 4.86895 32.8634 4.79183 32.9075 4.6913C32.9515 4.59073 32.9736 4.46403 32.9736 4.30976C32.9736 4.07975 32.9226 3.90621 32.8193 3.78638C32.716 3.66793 32.5618 3.60733 32.3565 3.60733H32.0659L32.1995 3.42552V7.15255H31.4131V2.92969L31.4145 2.93106Z" fill="#131313"/>
<path d="M34.0456 6.89628C33.8583 6.70483 33.7646 6.45003 33.7646 6.13048C33.7646 5.91698 33.8087 5.72967 33.8941 5.57127C33.9809 5.41152 34.0993 5.28894 34.2508 5.20217C34.4023 5.1154 34.5745 5.0727 34.7687 5.0727C34.8858 5.0727 34.9959 5.08923 35.0979 5.12091C35.2012 5.15395 35.2921 5.1994 35.3733 5.26H35.3858V5.11402C35.3858 4.9322 35.3334 4.79173 35.2287 4.69394C35.124 4.59477 34.9726 4.54519 34.7756 4.54519C34.6503 4.54519 34.529 4.5631 34.4092 4.59888C34.2908 4.6347 34.1778 4.68428 34.0731 4.74489V4.02456C34.1985 3.97222 34.3266 3.93365 34.4574 3.90886C34.5883 3.88545 34.7205 3.87305 34.8541 3.87305C35.2618 3.87305 35.5786 3.98048 35.8073 4.19672C36.0345 4.41296 36.1488 4.71459 36.1488 5.10163V7.15245H35.4463V6.95275H35.4339C35.3527 7.02572 35.2549 7.08222 35.1406 7.12215C35.0263 7.16208 34.9009 7.18276 34.7687 7.18276C34.474 7.18276 34.2329 7.0877 34.0456 6.89488V6.89628ZM35.2094 6.52715C35.2742 6.48859 35.3238 6.4335 35.361 6.36049C35.3982 6.28749 35.416 6.20486 35.416 6.11257C35.416 5.97071 35.3761 5.85777 35.2976 5.771C35.2191 5.68423 35.1172 5.64153 34.9918 5.64153C34.9078 5.64153 34.8321 5.66218 34.7646 5.70214C34.6984 5.74207 34.6461 5.79717 34.6076 5.8688C34.569 5.93903 34.5497 6.02029 34.5497 6.11395C34.5497 6.25167 34.591 6.36463 34.6737 6.45277C34.7563 6.54229 34.8624 6.58639 34.9918 6.58639C35.0731 6.58639 35.1447 6.56708 35.2094 6.52852V6.52715Z" fill="#131313"/>
<path d="M36.6242 3.98366C36.7053 3.92719 36.7659 3.85419 36.8085 3.76604C36.8514 3.67789 36.8803 3.5622 36.8969 3.42171L36.9147 3.25781H37.4283V3.91066H38.1061V4.59519H36.3086V4.12966C36.4381 4.08972 36.5428 4.04151 36.6227 3.98366H36.6242ZM36.887 6.96968C36.7397 6.81819 36.6668 6.5813 36.6668 6.259V4.49877H37.4298V6.1984C37.4298 6.29479 37.4531 6.36505 37.5001 6.40638C37.5467 6.44905 37.6115 6.46973 37.6969 6.46973C37.8142 6.46973 37.9408 6.43943 38.0784 6.37882V7.11706C37.909 7.16941 37.7343 7.19557 37.5523 7.19557C37.2577 7.19557 37.0372 7.11983 36.8899 6.96831L36.887 6.96968Z" fill="#131313"/>
<path d="M38.4346 2.82227H39.1976V4.15414H39.2101C39.2941 4.06599 39.3959 3.9985 39.5132 3.95442C39.6301 3.91035 39.7596 3.88832 39.9002 3.88832C40.1012 3.88832 40.2788 3.93238 40.4331 4.02191C40.5859 4.11144 40.7058 4.2354 40.7898 4.39654C40.8752 4.55768 40.9167 4.74776 40.9167 4.96537V7.15532H40.1604V5.1224C40.1604 4.96537 40.1163 4.84141 40.0309 4.75053C39.9442 4.65962 39.8284 4.61418 39.6826 4.61418C39.5365 4.61418 39.4152 4.65962 39.3285 4.75053C39.2416 4.84141 39.199 4.96537 39.199 5.1224V7.15532H38.436V2.82365L38.4346 2.82227Z" fill="#131313"/>
<path d="M15.4046 5.39416C15.2104 4.92035 14.9088 4.52782 14.4736 4.25235C14.0259 3.97 13.4998 3.81712 12.9723 3.79921C12.9296 3.59675 12.8662 3.39704 12.7794 3.20008C12.0839 1.62994 10.0689 1.05834 8.59514 1.8627C7.71917 2.34201 7.11177 3.23727 6.80049 4.16696C6.47407 5.1421 6.44652 6.21091 6.56222 7.22323C6.59389 7.49871 6.63384 7.77279 6.68342 8.0455C6.72474 8.27688 7.00571 8.40635 7.21644 8.34851C7.45885 8.28239 7.56077 8.04687 7.51946 7.81549C7.50017 7.7053 7.48089 7.5951 7.46436 7.48491C7.46023 7.45601 7.4561 7.42571 7.45197 7.39677C7.45197 7.39126 7.44646 7.35547 7.4437 7.33893C7.44232 7.32654 7.44095 7.31414 7.44095 7.31277C7.43544 7.2687 7.42993 7.2246 7.4258 7.17916C7.40101 6.9588 7.38448 6.73705 7.37621 6.5153C7.36657 6.28252 7.36795 6.0484 7.37897 5.81562C7.38448 5.7082 7.39274 5.60075 7.40238 5.49333C7.40789 5.44374 7.4134 5.39416 7.41891 5.34458C7.41891 5.33769 7.41891 5.33492 7.42029 5.32941C7.4258 5.29636 7.42993 5.26192 7.43544 5.22887C7.46987 5.0154 7.51532 4.80327 7.57593 4.59531C7.60485 4.49615 7.63653 4.39835 7.67096 4.30194C7.68749 4.25649 7.70402 4.21241 7.72192 4.16834C7.72468 4.16008 7.72743 4.15456 7.72881 4.14905C7.7412 4.12151 7.7536 4.09396 7.766 4.06504C7.85414 3.87359 7.95606 3.69041 8.07314 3.51549C8.10344 3.47003 8.13512 3.42596 8.16679 3.38189C8.16955 3.37775 8.17919 3.36536 8.18608 3.35709C8.19847 3.34057 8.21225 3.32404 8.22602 3.30889C8.29626 3.22349 8.37064 3.14223 8.44777 3.06372C8.51664 2.99348 8.58963 2.92737 8.66401 2.86402C8.67778 2.85162 8.74802 2.79791 8.7494 2.79515C8.78108 2.77174 8.81414 2.74832 8.84719 2.72628C8.91744 2.68083 8.98905 2.63813 9.06205 2.59819C9.09649 2.58028 9.13092 2.56238 9.16535 2.54723C9.18326 2.53897 9.20254 2.5307 9.22045 2.52244C9.2232 2.52244 9.2232 2.52244 9.22595 2.52106C9.38297 2.46459 9.53998 2.41639 9.70527 2.38609C9.75348 2.37782 9.8182 2.37231 9.73143 2.38057C9.77413 2.37644 9.81543 2.37094 9.85813 2.36818C9.94216 2.36129 10.0262 2.35991 10.1116 2.36129C10.1901 2.36267 10.2686 2.36956 10.3471 2.37644C10.354 2.37644 10.3595 2.37644 10.3636 2.37782C10.3691 2.37782 10.3774 2.38058 10.387 2.38195C10.4339 2.39022 10.4793 2.39848 10.5261 2.4095C10.5978 2.42603 10.668 2.44531 10.7383 2.46597C10.7782 2.47836 10.8181 2.49214 10.8567 2.50591C10.876 2.5128 10.8953 2.52106 10.9159 2.52795C11.0592 2.60508 11.2024 2.67119 11.336 2.76347C11.3457 2.77036 11.3718 2.78964 11.3897 2.80342C11.409 2.81994 11.4517 2.85438 11.4586 2.85988C11.5219 2.91498 11.5839 2.9742 11.6418 3.03618C11.668 3.06373 11.6927 3.09127 11.7162 3.11882C11.7313 3.13672 11.7657 3.18218 11.7699 3.18631C11.8126 3.24691 11.8553 3.30889 11.8938 3.37362C11.9365 3.44524 11.9737 3.51962 12.0095 3.594C12.015 3.60501 12.0178 3.6119 12.0206 3.61741C12.0206 3.62154 12.0233 3.6243 12.0247 3.62981C12.0426 3.67801 12.0605 3.72622 12.077 3.7758C12.0894 3.81299 12.0963 3.85156 12.1073 3.88874C11.3622 4.06504 10.668 4.48238 10.146 5.03054C9.75485 5.44237 9.41603 5.91893 9.34579 6.49602C9.27141 7.10204 9.68599 7.67636 10.292 7.78244C10.6184 7.84028 10.9201 7.79207 11.2162 7.64609C11.4338 7.53864 11.6321 7.39403 11.8139 7.23425C12.1789 6.9161 12.4737 6.49876 12.6748 6.05939C12.8786 5.61314 13.0067 5.14347 13.0356 4.66969C13.0659 4.67106 13.0962 4.67243 13.1265 4.6752C13.1486 4.67657 13.1706 4.67931 13.1926 4.68208C13.1995 4.68208 13.2078 4.68483 13.2174 4.6876C13.3276 4.70962 13.4378 4.73304 13.5452 4.76748C13.5948 4.78262 13.643 4.80053 13.6926 4.81981C13.6926 4.81981 13.7697 4.85285 13.7835 4.85977C13.8909 4.91209 13.9956 4.9713 14.0962 5.03879C14.1168 5.05259 14.1361 5.06635 14.1554 5.08012C14.1554 5.08012 14.1554 5.08012 14.1568 5.08149C14.1884 5.10905 14.2201 5.13659 14.2491 5.16552C14.2835 5.19857 14.3151 5.23301 14.3468 5.26883C14.3592 5.2826 14.3716 5.29773 14.384 5.3129C14.3854 5.31564 14.3868 5.31701 14.3895 5.32115C14.4391 5.39553 14.4873 5.4699 14.53 5.54979C14.552 5.59112 14.5727 5.63382 14.592 5.67789C14.603 5.7068 14.614 5.73436 14.625 5.76326C14.6898 5.94509 14.7325 6.13377 14.7655 6.32385C14.7669 6.3321 14.7683 6.34038 14.7697 6.34864C14.7697 6.35829 14.7724 6.37069 14.7738 6.37617C14.7779 6.42576 14.7848 6.47674 14.7876 6.52632C14.7945 6.62686 14.7986 6.7274 14.8 6.82656C14.8 7.01527 14.789 7.20395 14.7683 7.39126C14.7683 7.40366 14.7669 7.41057 14.7655 7.41745C14.7655 7.42156 14.7655 7.42433 14.7628 7.43122C14.7559 7.47529 14.749 7.52073 14.7407 7.5648C14.7256 7.64883 14.7077 7.73286 14.687 7.81686C14.6333 8.03724 14.7573 8.29756 14.99 8.34988C15.2145 8.40083 15.4652 8.28239 15.5231 8.04687C15.7324 7.1957 15.7462 6.21503 15.4088 5.39416H15.4046ZM7.42029 5.3253C7.4258 5.27434 7.42304 5.30462 7.42029 5.3253ZM12.1734 4.2069C12.1734 4.2193 12.1734 4.2193 12.1693 4.17523C12.1693 4.17523 12.1693 4.1766 12.1693 4.17798C12.1693 4.18762 12.1707 4.19726 12.172 4.20828L12.1734 4.2069ZM11.8291 4.88867C11.8181 4.89418 11.8112 4.89693 11.8291 4.88867ZM11.9434 5.57733C11.9723 5.51398 11.9503 5.56082 11.9434 5.57733ZM11.9737 5.50158C11.9641 5.52637 11.9544 5.55116 11.9448 5.57595C11.9448 5.57873 11.942 5.5801 11.9407 5.58424C11.8952 5.682 11.8484 5.77843 11.796 5.87345C11.7464 5.9616 11.6941 6.047 11.6376 6.12965C11.6115 6.16821 11.5839 6.20677 11.5564 6.24396C11.5068 6.31282 11.5399 6.26461 11.5509 6.25084C11.5302 6.27701 11.5095 6.3018 11.4875 6.32659C11.4228 6.40096 11.3553 6.4726 11.2851 6.54146C11.2479 6.57728 11.2093 6.61169 11.1693 6.64614C11.1542 6.65853 11.139 6.67093 11.1239 6.68333C11.1211 6.68607 11.1198 6.68747 11.1184 6.68884C11.1143 6.69158 11.1115 6.69435 11.1046 6.69849C11.0261 6.75356 10.9462 6.80591 10.8608 6.85273C10.8182 6.87615 10.7755 6.8982 10.7314 6.91885C10.7024 6.9271 10.6735 6.93261 10.6446 6.9395C10.6391 6.93813 10.5688 6.94364 10.5496 6.94364C10.5427 6.94364 10.5165 6.94364 10.5 6.94227C10.4917 6.94227 10.4821 6.9395 10.4807 6.9395C10.4642 6.93538 10.3664 6.90094 10.3733 6.90922C10.3554 6.89957 10.3388 6.88991 10.3209 6.88029C10.314 6.87615 10.3085 6.87341 10.3044 6.87063C10.3044 6.86926 10.303 6.86652 10.2975 6.86101C10.2865 6.84998 10.2755 6.83896 10.2658 6.82793C10.2603 6.82105 10.2521 6.81143 10.2493 6.80591C10.2383 6.78663 10.2273 6.76735 10.2176 6.74805C10.2176 6.74256 10.2162 6.73842 10.2149 6.73154C10.2121 6.71363 10.208 6.69572 10.2038 6.67781C10.2038 6.67644 10.2038 6.67507 10.2038 6.67367C10.2066 6.64751 10.2038 6.61998 10.2038 6.59518C10.2038 6.58279 10.2107 6.54283 10.2107 6.53732C10.2534 6.32248 10.3127 6.21503 10.4449 6.01809C10.4614 5.9933 10.4779 5.96851 10.4958 5.94509C10.4986 5.94095 10.5013 5.9382 10.5027 5.93543C10.5358 5.89413 10.5716 5.85418 10.606 5.81425C10.679 5.73022 10.752 5.64759 10.8305 5.56907C10.9049 5.4947 10.982 5.42446 11.0619 5.35697C11.1487 5.28534 11.1528 5.27983 11.2754 5.1972C11.4545 5.07601 11.6445 4.97133 11.8429 4.88179C11.8484 4.87905 11.8539 4.87628 11.8566 4.87628C11.8828 4.86665 11.909 4.85563 11.9351 4.84597C11.9875 4.82669 12.0398 4.80878 12.0935 4.79228C12.1169 4.78539 12.1404 4.77848 12.1624 4.77297C12.1596 4.79502 12.1583 4.80878 12.161 4.79776C12.1266 4.99198 12.0839 5.18343 12.0206 5.37074C12.0054 5.41481 11.9902 5.45888 11.9737 5.50295V5.50158ZM14.3771 5.30602C14.3675 5.29362 14.3675 5.29222 14.3771 5.30602ZM14.7642 6.34313C14.7628 6.3321 14.7614 6.32799 14.7642 6.34313Z" fill="#131313"/>
</g>
</g>
<defs>
<clipPath id="clip0_1702_649">
<rect width="35" height="7" fill="white" transform="translate(6.5 1.5)"/>
</clipPath>
</defs>
</svg>
