<svg width="48" height="10" viewBox="0 0 48 10" fill="none" xmlns="http://www.w3.org/2000/svg">
<path d="M6.13071 3.07617L4.59668 6.92499H5.45442L5.76815 6.11674H7.37305L7.68673 6.92499H8.54446L7.01044 3.07617H6.13071ZM6.04559 5.40196L6.57057 4.04937L7.09557 5.40196H6.04559Z" fill="#131313"/>
<path d="M12.2106 5.77034L10.4787 3.07617H9.54395V6.92499H10.3412V4.23081L12.0732 6.92499H13.0079V3.07617H12.2106V5.77034Z" fill="#131313"/>
<path d="M14.0078 3.81844H15.2999V6.92499H16.1247V3.81844H17.4168V3.07617H14.0078V3.81844Z" fill="#131313"/>
<path d="M21.0562 4.6102H19.2417V3.07617H18.417V6.92499H19.2417V5.35247H21.0562V6.92499H21.8809V3.07617H21.0562V4.6102Z" fill="#131313"/>
<path d="M26.1688 4.24731C26.1688 3.52153 25.6355 3.07617 24.7613 3.07617H22.8809V6.92499H23.7056V5.41845H24.6238L25.4486 6.92499H26.3613L25.448 5.3037C25.9064 5.12748 26.1688 4.7564 26.1688 4.24731ZM23.7056 3.81842H24.7228C25.1297 3.81842 25.3441 3.96688 25.3441 4.24731C25.3441 4.52774 25.1297 4.67619 24.7228 4.67619H23.7056V3.81842Z" fill="#131313"/>
<path d="M29.2583 3.00977C28.1476 3.00977 27.3613 3.83451 27.3613 5.00565C27.3613 6.16579 28.1476 6.99054 29.2583 6.99054C30.3634 6.99054 31.1442 6.16579 31.1442 5.00565C31.1442 3.83451 30.3634 3.00977 29.2583 3.00977ZM29.2583 6.22078C28.6094 6.22078 28.2136 5.75892 28.2136 5.00565C28.2136 4.24139 28.6094 3.77953 29.2583 3.77953C29.9015 3.77953 30.2919 4.24139 30.2919 5.00565C30.2919 5.75892 29.9015 6.22078 29.2583 6.22078Z" fill="#131313"/>
<path d="M34.0249 3.07617H32.1445V6.92499H32.9693V5.52842H34.0249C34.8992 5.52842 35.4325 5.06656 35.4325 4.30229C35.4325 3.53802 34.8992 3.07617 34.0249 3.07617ZM33.9865 4.78614H32.9693V3.81844H33.9865C34.3934 3.81844 34.6078 3.98339 34.6078 4.30229C34.6078 4.62119 34.3934 4.78614 33.9865 4.78614Z" fill="#131313"/>
<path d="M36.4326 3.07617L37.9666 6.92499H38.8079L37.2738 3.07617H36.4326Z" fill="#131313"/>
<path d="M42.5238 5.63246C42.3808 6.00634 42.0949 6.22078 41.7045 6.22078C41.0557 6.22078 40.6598 5.75892 40.6598 5.00565C40.6598 4.24139 41.0557 3.77953 41.7045 3.77953C42.0949 3.77953 42.3808 3.99396 42.5238 4.36785H43.398C43.1837 3.5431 42.5403 3.00977 41.7045 3.00977C40.5939 3.00977 39.8076 3.83451 39.8076 5.00565C39.8076 6.16579 40.5939 6.99054 41.7045 6.99054C42.5458 6.99054 43.1889 6.45171 43.4035 5.63246H42.5238Z" fill="#131313"/>
</svg>
