<svg width="48" height="10" viewBox="0 0 48 10" fill="none" xmlns="http://www.w3.org/2000/svg">
<path d="M19.1514 4.86441C19.1514 6.00893 19.9074 6.80696 20.955 6.80696C22.0026 6.80696 22.7586 6.00893 22.7586 4.86441C22.7586 3.71988 22.0026 2.92188 20.955 2.92188C19.9074 2.92188 19.1514 3.71988 19.1514 4.86441ZM22.0674 4.86441C22.0674 5.68343 21.6084 6.21369 20.955 6.21369C20.3016 6.21369 19.8426 5.68343 19.8426 4.86441C19.8426 4.0454 20.3016 3.51514 20.955 3.51514C21.6084 3.51514 22.0674 4.0454 22.0674 4.86441Z" fill="#131313"/>
<path d="M24.7056 6.80797C25.4994 6.80797 25.953 6.15695 25.953 5.37469C25.953 4.59242 25.4994 3.94141 24.7056 3.94141C24.3384 3.94141 24.0684 4.08316 23.8902 4.28791V3.99391H23.2422V7.69523H23.8902V6.46146C24.0684 6.66621 24.3384 6.80797 24.7056 6.80797ZM23.874 5.29593C23.874 4.77617 24.1764 4.49267 24.576 4.49267C25.0458 4.49267 25.2996 4.84968 25.2996 5.37469C25.2996 5.8997 25.0458 6.2567 24.576 6.2567C24.1764 6.2567 23.874 5.96795 23.874 5.45869V5.29593Z" fill="#131313"/>
<path d="M27.7061 6.80797C28.2731 6.80797 28.7214 6.51921 28.9212 6.0362L28.3649 5.83145C28.2785 6.11495 28.0247 6.27245 27.7061 6.27245C27.2903 6.27245 26.9987 5.9837 26.9501 5.51119H28.9374V5.30118C28.9374 4.54517 28.4999 3.94141 27.6791 3.94141C26.8583 3.94141 26.3291 4.56617 26.3291 5.37469C26.3291 6.2252 26.8961 6.80797 27.7061 6.80797ZM27.6737 4.47167C28.0841 4.47167 28.2785 4.73417 28.2839 5.03868H26.9825C27.0797 4.66592 27.3389 4.47167 27.6737 4.47167Z" fill="#131313"/>
<path d="M29.4238 6.75021H30.0718V5.13318C30.0718 4.73942 30.3688 4.52942 30.6605 4.52942C31.0169 4.52942 31.1573 4.77617 31.1573 5.11743V6.75021H31.8053V4.93368C31.8053 4.34041 31.4489 3.94141 30.8549 3.94141C30.4877 3.94141 30.2338 4.10416 30.0718 4.28791V3.99391H29.4238V6.75021Z" fill="#131313"/>
<path d="M33.7032 2.98047L32.2344 6.75005H32.9202L33.2496 5.88903H34.9236L35.2584 6.75005H35.9551L34.4862 2.98047H33.7032ZM34.0812 3.72598L34.6968 5.30102H33.4764L34.0812 3.72598Z" fill="#131313"/>
<path d="M37.0682 2.99023H36.377V6.75981H37.0682V2.99023Z" fill="#131313"/>
<path d="M17.5687 4.36506C17.732 3.88839 17.6758 3.36623 17.4146 2.93266C17.0217 2.26764 16.2319 1.92551 15.4606 2.08651C15.1175 1.71069 14.6245 1.49697 14.1077 1.50003C13.3192 1.49828 12.6197 1.99179 12.3771 2.72112C11.8707 2.82197 11.4335 3.13019 11.1777 3.56704C10.7819 4.23031 10.8721 5.06638 11.4009 5.63515C11.2375 6.11181 11.2938 6.63398 11.555 7.06755C11.9478 7.73256 12.7376 8.0747 13.5089 7.9137C13.8518 8.28952 14.345 8.50326 14.8619 8.49996C15.6507 8.50193 16.3505 8.00798 16.5931 7.278C17.0995 7.17715 17.5367 6.86893 17.7926 6.43207C18.1879 5.76881 18.0975 4.93338 17.5689 4.36462L17.5687 4.36506ZM14.8623 8.04255C14.5466 8.04298 14.2409 7.93558 13.9985 7.73891C14.0096 7.73322 14.0287 7.72295 14.0411 7.71551L15.4748 6.91049C15.5481 6.87002 15.5931 6.79411 15.5927 6.71208V4.747L16.1986 5.08717C16.2052 5.09023 16.2094 5.09636 16.2103 5.10336V6.73067C16.2094 7.45432 15.6066 8.04101 14.8623 8.04255ZM11.9634 6.83874C11.8052 6.57317 11.7483 6.26188 11.8025 5.95978C11.8131 5.9659 11.8317 5.97706 11.845 5.9845L13.2787 6.78952C13.3514 6.83086 13.4414 6.83086 13.5143 6.78952L15.2646 5.80687V6.4872C15.2651 6.4942 15.2617 6.50098 15.2561 6.50535L13.8068 7.3189C13.1613 7.68029 12.3369 7.46547 11.9636 6.83874H11.9634ZM11.586 3.79608C11.7435 3.53008 11.9922 3.32663 12.2883 3.22098C12.2883 3.233 12.2876 3.25423 12.2876 3.2691V4.87935C12.2871 4.96117 12.3321 5.03707 12.4053 5.07754L14.1556 6.05997L13.5497 6.40014C13.5436 6.40407 13.5359 6.40473 13.5292 6.40189L12.0797 5.58768C11.4355 5.22499 11.2146 4.42369 11.5858 3.7963L11.586 3.79608ZM16.5645 4.92245L14.8142 3.9398L15.4201 3.59986C15.4262 3.59592 15.4338 3.59526 15.4406 3.59811L16.8901 4.41165C17.5354 4.77414 17.7566 5.57674 17.3837 6.20413C17.226 6.4697 16.9776 6.67314 16.6817 6.77902V5.12064C16.6824 5.03882 16.6376 4.96313 16.5647 4.92245H16.5645ZM17.1675 4.03999C17.1569 4.03365 17.1382 4.02271 17.125 4.01527L15.6912 3.21025C15.6186 3.16891 15.5286 3.16891 15.4557 3.21025L13.7054 4.1929V3.51258C13.7049 3.50558 13.7083 3.49879 13.7139 3.49442L15.1632 2.68153C15.8087 2.31949 16.634 2.53496 17.0062 3.16279C17.1634 3.42792 17.2204 3.73833 17.167 4.03999H17.1675ZM13.3759 5.25255L12.7698 4.91239C12.7633 4.90932 12.759 4.9032 12.7581 4.8962V3.26888C12.7585 2.54436 13.3631 1.95723 14.1083 1.95767C14.4236 1.95767 14.7287 2.06529 14.971 2.2613C14.96 2.26698 14.9411 2.27727 14.9285 2.28471L13.4947 3.08973C13.4214 3.13019 13.3764 3.20588 13.3768 3.28791L13.3759 5.25211V5.25255ZM13.7051 4.5626L14.4848 4.12487L15.2644 4.56238V5.43762L14.4848 5.87513L13.7051 5.43762V4.5626Z" fill="#131313"/>
</svg>
