<svg width="48" height="10" viewBox="0 0 48 10" fill="none" xmlns="http://www.w3.org/2000/svg">
<path d="M31.9336 6.32645V2.73828H32.5407V5.10636L33.8246 3.72829H34.5606L33.4056 4.90928L34.5714 6.32645H33.8461L32.9019 5.10876L32.5407 5.10636V6.32645H31.9336Z" fill="#131313"/>
<path d="M30.0926 6.38979C29.1901 6.38979 28.7012 5.79177 28.7012 5.02791C28.7012 4.25902 29.1901 3.66602 30.0926 3.66602C31.0005 3.66602 31.4839 4.25902 31.4839 5.02791C31.4839 5.79177 31.0005 6.38979 30.0926 6.38979ZM29.3351 5.02791C29.3351 5.62095 29.6789 5.91742 30.0926 5.91742C30.5116 5.91742 30.85 5.62095 30.85 5.02791C30.85 4.43491 30.5116 4.13337 30.0926 4.13337C29.6789 4.13337 29.3351 4.43491 29.3351 5.02791Z" fill="#131313"/>
<path d="M27.0127 6.33057V4.14452L27.523 3.73242H28.6083V4.21487H27.6198V6.33057H27.0127Z" fill="#131313"/>
<path d="M24.6916 6.39625C23.5346 6.39625 22.8447 5.61124 22.8447 4.5408C22.8447 3.46033 23.5593 2.65625 24.7142 2.65625C25.6168 2.65625 26.2776 3.08844 26.4333 3.89252H25.7403C25.6382 3.4352 25.23 3.1789 24.7142 3.1789C23.8815 3.1789 23.5162 3.85232 23.5162 4.5408C23.5162 5.22929 23.8815 5.89766 24.7142 5.89766C25.5093 5.89766 25.8585 5.35994 25.8854 4.91268H24.6874V4.39234H26.4978L26.4948 4.66438C26.4948 5.67532 26.0539 6.39625 24.6916 6.39625Z" fill="#131313"/>
<path d="M17.0344 5.52395L19.6465 3.72015C19.7746 3.63172 19.9576 3.66621 20.0187 3.80358C20.3398 4.52798 20.1964 5.39854 19.5574 5.99626C18.9184 6.59398 18.0294 6.72504 17.2168 6.42653L16.3291 6.81098C17.6023 7.62506 19.1484 7.42376 20.1146 6.51933C20.8809 5.80246 21.1183 4.82527 20.8963 3.94407L20.8984 3.94594C20.5765 2.65141 20.9775 2.13397 21.7988 1.0759C21.8182 1.05081 21.8376 1.02572 21.8571 1L20.7763 2.01104V2.00791L17.0338 5.52459" fill="#131313"/>
<path d="M16.4955 5.96215C15.5816 5.14554 15.7392 3.88174 16.5189 3.15296C17.0955 2.61356 18.0402 2.39342 18.8649 2.71705L19.7506 2.33446C19.591 2.22658 19.3865 2.11055 19.1519 2.02901C18.0912 1.62071 16.8213 1.82392 15.9591 2.62987C15.1297 3.4057 14.8689 4.59864 15.3168 5.6166C15.6514 6.37736 15.1029 6.91549 14.5505 7.45867C14.3547 7.65119 14.1582 7.84376 14 8.04762L16.4948 5.96279" fill="#131313"/>
</svg>
