<svg width="48" height="10" viewBox="0 0 48 10" fill="none" xmlns="http://www.w3.org/2000/svg">
<path d="M15.3779 5.62067C15.4151 5.96765 15.7307 6.56247 16.6466 6.56247C17.445 6.56247 17.8287 6.05439 17.8287 5.55871C17.8287 5.11259 17.5254 4.74702 16.9251 4.62309L16.4919 4.53016C16.3248 4.49918 16.2135 4.40624 16.2135 4.25753C16.2135 4.08403 16.3867 3.95392 16.6033 3.95392C16.9498 3.95392 17.0798 4.18318 17.1046 4.36287L17.7915 4.20796C17.7544 3.87957 17.4635 3.32812 16.5971 3.32812C15.9412 3.32812 15.4584 3.78044 15.4584 4.32568C15.4584 4.75321 15.7245 5.1064 16.3124 5.23651L16.7147 5.32945C16.9498 5.37901 17.0427 5.49056 17.0427 5.62686C17.0427 5.78797 16.9128 5.93047 16.6405 5.93047C16.2815 5.93047 16.102 5.70741 16.0835 5.46576L15.3779 5.62067Z" fill="#131313"/>
<path d="M20.4593 6.47034H21.2453C21.2329 6.365 21.2143 6.15435 21.2143 5.91889V3.42188H20.3911V5.19395C20.3911 5.54713 20.1808 5.79497 19.8157 5.79497C19.432 5.79497 19.2587 5.52234 19.2587 5.18156V3.42188H18.4355V5.34886C18.4355 6.01183 18.8564 6.55089 19.5929 6.55089C19.9146 6.55089 20.2675 6.42698 20.4346 6.14195C20.4346 6.26587 20.4469 6.40838 20.4593 6.47034Z" fill="#131313"/>
<path d="M22.9158 7.64739V6.17274C23.0643 6.37719 23.3738 6.5445 23.7947 6.5445C24.6548 6.5445 25.2303 5.86292 25.2303 4.93971C25.2303 4.03509 24.7167 3.35352 23.8256 3.35352C23.3677 3.35352 23.0273 3.55798 22.8911 3.79344V3.42167H22.0928V7.64739H22.9158ZM24.4196 4.9459C24.4196 5.49117 24.0855 5.80716 23.6646 5.80716C23.2439 5.80716 22.9035 5.48497 22.9035 4.9459C22.9035 4.40685 23.2439 4.09085 23.6646 4.09085C24.0855 4.09085 24.4196 4.40685 24.4196 4.9459Z" fill="#131313"/>
<path d="M25.6963 5.63925C25.6963 6.11636 26.0923 6.55628 26.7422 6.55628C27.1939 6.55628 27.4847 6.3456 27.6394 6.10395C27.6394 6.22169 27.6518 6.38897 27.6704 6.46953H28.4254C28.4068 6.36419 28.3883 6.14733 28.3883 5.98624V4.48678C28.3883 3.87337 28.0294 3.32812 27.064 3.32812C26.247 3.32812 25.8076 3.85478 25.7582 4.33188L26.4884 4.48678C26.5132 4.22035 26.7112 3.9911 27.07 3.9911C27.4167 3.9911 27.5838 4.17079 27.5838 4.38765C27.5838 4.49298 27.5282 4.57973 27.3549 4.60451L26.606 4.71604C26.0986 4.7904 25.6963 5.094 25.6963 5.63925ZM26.9154 5.94286C26.6493 5.94286 26.5193 5.76938 26.5193 5.58969C26.5193 5.35424 26.6864 5.23651 26.8969 5.20553L27.5838 5.1002V5.23651C27.5838 5.77558 27.262 5.94286 26.9154 5.94286Z" fill="#131313"/>
<path d="M30.0172 6.47034V6.09857C30.178 6.35881 30.4997 6.54469 30.9207 6.54469C31.7871 6.54469 32.3565 5.85692 32.3565 4.93371C32.3565 4.02908 31.8428 3.34132 30.9516 3.34132C30.4998 3.34132 30.1656 3.53959 30.0295 3.75644V1.98438H29.2188V6.47034H30.0172ZM31.5333 4.9399C31.5333 5.49755 31.1991 5.80735 30.7783 5.80735C30.3637 5.80735 30.0172 5.49136 30.0172 4.9399C30.0172 4.38225 30.3637 4.07865 30.7783 4.07865C31.1991 4.07865 31.5333 4.38225 31.5333 4.9399Z" fill="#131313"/>
<path d="M32.8223 5.63925C32.8223 6.11636 33.2183 6.55628 33.8681 6.55628C34.3198 6.55628 34.6108 6.3456 34.7654 6.10395C34.7654 6.22169 34.7779 6.38897 34.7964 6.46953H35.5514C35.5329 6.36419 35.5143 6.14733 35.5143 5.98624V4.48678C35.5143 3.87337 35.1554 3.32812 34.1899 3.32812C33.373 3.32812 32.9336 3.85478 32.8841 4.33188L33.6143 4.48678C33.6392 4.22035 33.8372 3.9911 34.196 3.9911C34.5427 3.9911 34.7097 4.17079 34.7097 4.38765C34.7097 4.49298 34.6541 4.57973 34.4808 4.60451L33.732 4.71604C33.2246 4.7904 32.8223 5.094 32.8223 5.63925ZM34.0415 5.94286C33.7753 5.94286 33.6453 5.76938 33.6453 5.58969C33.6453 5.35424 33.8123 5.23651 34.0228 5.20553L34.7097 5.1002V5.23651C34.7097 5.77558 34.388 5.94286 34.0415 5.94286Z" fill="#131313"/>
<path d="M36.084 5.62067C36.1211 5.96765 36.4367 6.56247 37.3526 6.56247C38.151 6.56247 38.5346 6.05439 38.5346 5.55871C38.5346 5.11259 38.2314 4.74702 37.6311 4.62309L37.1979 4.53016C37.0308 4.49918 36.9195 4.40624 36.9195 4.25753C36.9195 4.08403 37.0927 3.95392 37.3093 3.95392C37.656 3.95392 37.7859 4.18318 37.8107 4.36287L38.4976 4.20796C38.4604 3.87957 38.1696 3.32812 37.3032 3.32812C36.6471 3.32812 36.1645 3.78044 36.1645 4.32568C36.1645 4.75321 36.4305 5.1064 37.0185 5.23651L37.4208 5.32945C37.656 5.37901 37.7488 5.49056 37.7488 5.62686C37.7488 5.78797 37.6188 5.93047 37.3465 5.93047C36.9875 5.93047 36.8081 5.70741 36.7895 5.46576L36.084 5.62067Z" fill="#131313"/>
<path d="M39.7834 4.59831C39.8019 4.31949 40.0372 3.99729 40.4642 3.99729C40.9345 3.99729 41.1326 4.29471 41.145 4.59831H39.7834ZM41.2255 5.39142C41.1264 5.66403 40.916 5.85612 40.5323 5.85612C40.1238 5.85612 39.7834 5.5649 39.7649 5.16217H41.9433C41.9433 5.14976 41.9556 5.02584 41.9556 4.90812C41.9556 3.92914 41.3925 3.32812 40.4518 3.32812C39.6721 3.32812 38.9541 3.96011 38.9541 4.9329C38.9541 5.96145 39.6905 6.56247 40.5261 6.56247C41.2749 6.56247 41.7576 6.12255 41.9124 5.59588L41.2255 5.39142Z" fill="#131313"/>
<path d="M9.92865 8.31643C9.75152 8.53952 9.39235 8.41728 9.38808 8.13245L9.36073 3.96644H12.1269C12.6343 3.96644 12.9173 4.55247 12.6018 4.94983L9.92865 8.31643Z" fill="url(#paint0_linear_1703_759)"/>
<path d="M8.80572 1.61521C8.98286 1.39212 9.34203 1.51436 9.34629 1.79919L9.37364 5.9652H6.60748C6.10009 5.9652 5.81711 5.37917 6.13262 4.98181L8.80572 1.61521Z" fill="#131313"/>
<defs>
<linearGradient id="paint0_linear_1703_759" x1="9.7292" y1="4.98518" x2="10.9723" y2="7.16062" gradientUnits="userSpaceOnUse">
<stop stop-color="#131313"/>
<stop offset="1" stop-color="#919191"/>
</linearGradient>
</defs>
</svg>
