<svg width="48" height="10" viewBox="0 0 48 10" fill="none" xmlns="http://www.w3.org/2000/svg">
<path d="M6.97582 2H8.20842H9.16712C10.1045 2 10.2204 2.74974 10.1524 3.08882C9.85317 4.58203 9.24359 7.61928 9.19945 7.82273C9.17085 7.95463 9.23282 7.97346 9.27935 7.8416C9.85698 6.20458 11.0324 2.87407 11.113 2.64802C11.2386 2.29952 11.7141 1.88697 12.3514 2.04144C12.8611 2.16502 13 2.7083 13 2.96072V8.12979C13 8.49338 12.599 9.18245 11.756 8.95489C10.9129 8.72733 10.9837 7.92949 11.1245 7.55902C11.6089 6.43882 12.5979 4.15014 12.6785 3.95724C12.7218 3.85363 12.6713 3.82915 12.6082 3.92145C11.7648 5.15344 9.99114 7.74475 9.64266 8.25411C9.29418 8.76351 8.87228 8.89651 8.60788 8.89651C6.60375 8.89651 6 6.92984 6 5.94839V3.00782C6 2.21061 6.65054 2.00377 6.97582 2Z" fill="#131313"/>
<path fill-rule="evenodd" clip-rule="evenodd" d="M20.3429 7.50637C20.0843 7.87876 19.7104 8.18037 19.1072 8.18037C17.723 8.18037 17.1143 7.289 17.1143 6.14399V2.88281H17.8969V6.14399C17.8969 6.89765 18.2666 7.51365 19.1072 7.51365C19.9406 7.51365 20.3029 6.89765 20.3029 6.14399V2.88281H21.0856V4.31047H21.0857V8.0572H20.3429V7.50637ZM21.5678 4.31047V8.0572H22.3142V6.26716C22.3142 5.31055 22.7491 4.85399 23.2854 4.85399C23.7999 4.85399 24.039 5.17286 24.039 5.79611V8.0572H24.7782V5.67291C24.7782 4.86124 24.4086 4.21625 23.4303 4.21625C22.8505 4.21625 22.5027 4.56411 22.307 4.99169V4.31047H21.5678ZM28.3102 8.15139C29.216 8.15139 29.8103 7.68759 30.006 6.87592H29.274C29.1218 7.31073 28.7957 7.54263 28.2957 7.54263C27.5709 7.54263 27.1071 6.94837 27.1071 6.18746C27.1071 5.41926 27.5709 4.81776 28.2957 4.81776C28.8464 4.81776 29.1145 5.11489 29.2523 5.46999H29.977C29.8248 4.74529 29.2523 4.21625 28.3102 4.21625C27.1651 4.21625 26.3679 5.02067 26.3679 6.18746C26.3679 7.34696 27.1651 8.15139 28.3102 8.15139ZM32.1895 8.15139C31.0662 8.15139 30.2835 7.32522 30.2835 6.18746C30.2835 5.04966 31.0662 4.21625 32.1895 4.21625C33.3128 4.21625 34.0883 5.04966 34.0883 6.18746C34.0883 7.32522 33.3128 8.15139 32.1895 8.15139ZM31.0228 6.18746C31.0228 6.92663 31.4866 7.53539 32.1895 7.53539C32.8853 7.53539 33.3563 6.92663 33.3563 6.18746C33.3563 5.441 32.8853 4.83225 32.1895 4.83225C31.4866 4.83225 31.0228 5.441 31.0228 6.18746ZM36.603 4.31047V8.0572H37.3494V6.26716C37.3494 5.31055 37.7842 4.85399 38.3205 4.85399C38.8351 4.85399 39.0742 5.17286 39.0742 5.79611V8.0572H39.8134V5.67291C39.8134 4.86124 39.4438 4.21625 38.4654 4.21625C37.8857 4.21625 37.5378 4.56411 37.3421 4.99169V4.31047H36.603ZM35.1533 5.03517V4.31047H34.4141V8.05715H35.1605V6.31788C35.1605 5.28881 35.5663 5.09314 35.9649 5.02792C36.0736 4.99893 36.2403 4.99169 36.2765 4.99169V4.28872C35.7258 4.28872 35.3489 4.49889 35.1533 5.03517ZM25.242 8.05715V4.31046H25.9884V8.05715H25.242ZM26.0777 3.35255C26.0777 3.5991 25.8778 3.79897 25.6312 3.79897C25.3847 3.79897 25.1848 3.5991 25.1848 3.35255C25.1848 3.10599 25.3847 2.90612 25.6312 2.90612C25.8778 2.90612 26.0777 3.10599 26.0777 3.35255Z" fill="#131313"/>
</svg>
