<svg width="48" height="10" viewBox="0 0 48 10" fill="none" xmlns="http://www.w3.org/2000/svg">
<path d="M13.2497 1.5V3.83333H10.9163L8.58301 1.5H13.2497ZM8.58301 3.83333H10.9163L13.2497 6.16667H10.9163V8.5L8.58301 6.16667V3.83333Z" fill="#131313"/>
<path d="M17.25 7.28385V2.61719H20.0977V3.52041H18.3289V4.77489H20.0977V5.66557H18.3289V7.28385H17.25Z" fill="#131313"/>
<path d="M20.8135 7.28396V4.07249H21.8296V4.73736C21.8798 4.51156 21.9927 4.32339 22.1558 4.19794C22.3189 4.07249 22.507 4.00977 22.7077 4.00977C22.8081 4.00977 22.9085 4.02231 22.9712 4.03486V4.98826C22.8457 4.97572 22.7454 4.96317 22.6701 4.96317C22.1056 4.96317 21.8296 5.32697 21.8296 6.02948V7.27141H20.8135V7.28396Z" fill="#131313"/>
<path d="M24.7271 7.3578C24.2629 7.3578 23.8866 7.19472 23.6231 6.8811C23.3471 6.56748 23.2217 6.1535 23.2217 5.66425C23.2217 5.175 23.3597 4.77357 23.6357 4.44741C23.9116 4.13379 24.288 3.9707 24.7396 3.9707C24.9654 3.9707 25.1661 4.02088 25.3418 4.12124C25.5174 4.2216 25.6554 4.34705 25.7432 4.52267V4.05852H26.7593V7.26999H25.7432V6.81837C25.6554 6.98146 25.5174 7.1069 25.3292 7.20726C25.1536 7.32017 24.9529 7.3578 24.7271 7.3578ZM25.0156 6.5173C25.2539 6.5173 25.4547 6.44203 25.5801 6.27895C25.7056 6.11586 25.7808 5.91515 25.7808 5.6768C25.7808 5.43845 25.7181 5.23773 25.5801 5.07465C25.4421 4.91156 25.2539 4.83629 25.0156 4.83629C24.7898 4.83629 24.6016 4.91156 24.4636 5.07465C24.3256 5.22518 24.2504 5.43845 24.2504 5.6768C24.2504 5.92769 24.3256 6.12841 24.4636 6.29149C24.6016 6.44203 24.7898 6.5173 25.0156 6.5173Z" fill="#131313"/>
<path d="M27.6006 7.28366V4.07219H28.6167V4.53635C28.692 4.37326 28.8049 4.23527 28.968 4.13491C29.1311 4.03455 29.3192 3.98438 29.5325 3.98438C30.0343 3.98438 30.373 4.18509 30.5361 4.57398C30.6239 4.39835 30.7619 4.24782 30.9375 4.14746C31.1257 4.03455 31.3264 3.98438 31.5522 3.98438C32.3174 3.98438 32.6938 4.42344 32.6938 5.28903V7.28366H31.6651V5.47721C31.6651 5.05068 31.502 4.84997 31.1884 4.84997C30.8246 4.84997 30.649 5.11341 30.649 5.64029V7.2962H29.6454V5.46466C29.6454 5.05068 29.4823 4.83742 29.1687 4.83742C28.9931 4.83742 28.8551 4.90015 28.7673 5.01305C28.6794 5.12595 28.6293 5.33921 28.6293 5.62774V7.28366H27.6006Z" fill="#131313"/>
<path d="M36.6819 5.5023C36.6819 5.64029 36.6693 5.77828 36.6568 5.95391H34.2858C34.2984 6.16717 34.3611 6.33025 34.4991 6.44316C34.6371 6.55606 34.8127 6.61878 35.0385 6.61878C35.3521 6.61878 35.5528 6.51843 35.6407 6.31771H36.6442C36.5941 6.63133 36.4184 6.89477 36.1299 7.08294C35.8288 7.28366 35.4776 7.38402 35.051 7.38402C34.4991 7.38402 34.0725 7.23348 33.7589 6.9324C33.4453 6.63133 33.2822 6.21735 33.2822 5.67792C33.2822 5.15104 33.4453 4.73706 33.7589 4.43599C34.0725 4.13491 34.4991 3.98438 35.0134 3.98438C35.5152 3.98438 35.9166 4.12237 36.2303 4.4109C36.5188 4.68688 36.6819 5.05068 36.6819 5.5023ZM34.2733 5.31412H35.6657C35.6657 5.10086 35.603 4.93778 35.4901 4.82488C35.3772 4.71197 35.2141 4.64925 34.9883 4.64925C34.7751 4.64925 34.5994 4.71197 34.474 4.83742C34.3485 4.96287 34.2858 5.12595 34.2733 5.31412Z" fill="#131313"/>
<path d="M37.2598 7.28396V4.07249H38.2759V4.73736C38.3261 4.51156 38.439 4.32339 38.6021 4.19794C38.7651 4.07249 38.9533 4.00977 39.154 4.00977C39.2544 4.00977 39.3547 4.02231 39.4175 4.03486V4.98826C39.292 4.97572 39.1917 4.96317 39.1164 4.96317C38.5519 4.96317 38.2759 5.32697 38.2759 6.02948V7.27141H37.2598V7.28396Z" fill="#131313"/>
</svg>
